<mxfile host="Electron" modified="2023-05-22T07:01:54.917Z" agent="Mozilla/5.0 (X11; Linux x86_64) AppleWebKit/537.36 (KHTML, like Gecko) draw.io/21.2.8 Chrome/112.0.5615.165 Electron/24.2.0 Safari/537.36" etag="x1DkKGHEGFUc4Qv7ak9w" version="21.2.8" type="device">
  <diagram name="Page-1" id="WDfdUUF1OT3p-k6qlIdN">
    <mxGraphModel dx="1135" dy="703" grid="1" gridSize="10" guides="1" tooltips="1" connect="1" arrows="1" fold="1" page="1" pageScale="1" pageWidth="1169" pageHeight="827" math="0" shadow="0">
      <root>
        <mxCell id="0" />
        <mxCell id="1" parent="0" />
        <mxCell id="O9ZK9i_gv414k6VcTLi9-1" value="Employee" style="rounded=0;whiteSpace=wrap;html=1;fontSize=24;" vertex="1" parent="1">
          <mxGeometry x="50" y="130" width="210" height="120" as="geometry" />
        </mxCell>
        <mxCell id="O9ZK9i_gv414k6VcTLi9-2" value="Department" style="rounded=0;whiteSpace=wrap;html=1;fontSize=24;" vertex="1" parent="1">
          <mxGeometry x="390" y="330" width="210" height="120" as="geometry" />
        </mxCell>
        <mxCell id="O9ZK9i_gv414k6VcTLi9-3" value="Manager" style="rounded=0;whiteSpace=wrap;html=1;fontSize=24;" vertex="1" parent="1">
          <mxGeometry x="760" y="170" width="210" height="120" as="geometry" />
        </mxCell>
        <mxCell id="O9ZK9i_gv414k6VcTLi9-4" value="first name, last name, ...." style="text;html=1;strokeColor=none;fillColor=none;align=center;verticalAlign=middle;whiteSpace=wrap;rounded=0;fontSize=24;" vertex="1" parent="1">
          <mxGeometry x="760" y="310" width="290" height="30" as="geometry" />
        </mxCell>
        <mxCell id="O9ZK9i_gv414k6VcTLi9-5" value="first name, last name, ...." style="text;html=1;strokeColor=none;fillColor=none;align=center;verticalAlign=middle;whiteSpace=wrap;rounded=0;fontSize=24;" vertex="1" parent="1">
          <mxGeometry x="50" y="270" width="290" height="30" as="geometry" />
        </mxCell>
        <mxCell id="O9ZK9i_gv414k6VcTLi9-8" value="team_members?" style="text;html=1;strokeColor=none;fillColor=none;align=center;verticalAlign=middle;whiteSpace=wrap;rounded=0;fontSize=24;" vertex="1" parent="1">
          <mxGeometry x="350" y="460" width="290" height="30" as="geometry" />
        </mxCell>
        <mxCell id="O9ZK9i_gv414k6VcTLi9-9" value="manager" style="text;html=1;strokeColor=none;fillColor=none;align=center;verticalAlign=middle;whiteSpace=wrap;rounded=0;fontSize=24;" vertex="1" parent="1">
          <mxGeometry x="350" y="500" width="290" height="30" as="geometry" />
        </mxCell>
        <mxCell id="O9ZK9i_gv414k6VcTLi9-10" value="Person" style="rounded=0;whiteSpace=wrap;html=1;fontSize=24;" vertex="1" parent="1">
          <mxGeometry x="400" y="20" width="210" height="120" as="geometry" />
        </mxCell>
        <mxCell id="O9ZK9i_gv414k6VcTLi9-11" value="first name, last name, ...." style="text;html=1;strokeColor=none;fillColor=none;align=center;verticalAlign=middle;whiteSpace=wrap;rounded=0;fontSize=24;" vertex="1" parent="1">
          <mxGeometry x="370" y="150" width="290" height="30" as="geometry" />
        </mxCell>
        <mxCell id="O9ZK9i_gv414k6VcTLi9-13" value="canlilar" style="rounded=0;whiteSpace=wrap;html=1;fontSize=24;" vertex="1" parent="1">
          <mxGeometry x="400" y="740" width="210" height="120" as="geometry" />
        </mxCell>
        <mxCell id="O9ZK9i_gv414k6VcTLi9-18" style="edgeStyle=orthogonalEdgeStyle;rounded=0;orthogonalLoop=1;jettySize=auto;html=1;entryX=0;entryY=0.5;entryDx=0;entryDy=0;" edge="1" parent="1" source="O9ZK9i_gv414k6VcTLi9-14" target="O9ZK9i_gv414k6VcTLi9-15">
          <mxGeometry relative="1" as="geometry" />
        </mxCell>
        <mxCell id="O9ZK9i_gv414k6VcTLi9-19" style="edgeStyle=orthogonalEdgeStyle;rounded=0;orthogonalLoop=1;jettySize=auto;html=1;exitX=0.25;exitY=1;exitDx=0;exitDy=0;entryX=0;entryY=0.5;entryDx=0;entryDy=0;" edge="1" parent="1" source="O9ZK9i_gv414k6VcTLi9-14" target="O9ZK9i_gv414k6VcTLi9-16">
          <mxGeometry relative="1" as="geometry" />
        </mxCell>
        <mxCell id="O9ZK9i_gv414k6VcTLi9-21" style="edgeStyle=orthogonalEdgeStyle;rounded=0;orthogonalLoop=1;jettySize=auto;html=1;exitX=0;exitY=1;exitDx=0;exitDy=0;entryX=0;entryY=0.5;entryDx=0;entryDy=0;" edge="1" parent="1" source="O9ZK9i_gv414k6VcTLi9-14" target="O9ZK9i_gv414k6VcTLi9-20">
          <mxGeometry relative="1" as="geometry" />
        </mxCell>
        <mxCell id="O9ZK9i_gv414k6VcTLi9-14" value="nefer" style="rounded=0;whiteSpace=wrap;html=1;fontSize=24;" vertex="1" parent="1">
          <mxGeometry x="510" y="880" width="210" height="120" as="geometry" />
        </mxCell>
        <mxCell id="O9ZK9i_gv414k6VcTLi9-15" value="talebe" style="rounded=0;whiteSpace=wrap;html=1;fontSize=24;" vertex="1" parent="1">
          <mxGeometry x="640" y="1020" width="210" height="120" as="geometry" />
        </mxCell>
        <mxCell id="O9ZK9i_gv414k6VcTLi9-16" value="muallim" style="rounded=0;whiteSpace=wrap;html=1;fontSize=24;" vertex="1" parent="1">
          <mxGeometry x="640" y="1181" width="210" height="120" as="geometry" />
        </mxCell>
        <mxCell id="O9ZK9i_gv414k6VcTLi9-20" value="mudur - manager" style="rounded=0;whiteSpace=wrap;html=1;fontSize=24;" vertex="1" parent="1">
          <mxGeometry x="640" y="1340" width="210" height="120" as="geometry" />
        </mxCell>
        <mxCell id="O9ZK9i_gv414k6VcTLi9-23" value="NEFER&#39;de ne varsa, TALEBE de de var&lt;br&gt;&lt;br&gt;NEFER&#39;de ne varsa&lt;br&gt;MUALLIM de de var&lt;br&gt;&lt;br&gt;&lt;br&gt;AMA&amp;nbsp;&lt;br&gt;MUALLIMDE OLAN HERSEY NEFER DE YOK!" style="text;html=1;strokeColor=none;fillColor=none;align=center;verticalAlign=middle;whiteSpace=wrap;rounded=0;fontSize=24;" vertex="1" parent="1">
          <mxGeometry x="50" y="910" width="290" height="370" as="geometry" />
        </mxCell>
        <mxCell id="O9ZK9i_gv414k6VcTLi9-25" value="SUPER CLASS&lt;br&gt;UST&lt;br&gt;TOP&lt;br&gt;UPPER" style="text;html=1;strokeColor=none;fillColor=none;align=center;verticalAlign=middle;whiteSpace=wrap;rounded=0;fontSize=22;" vertex="1" parent="1">
          <mxGeometry x="750" y="860" width="230" height="130" as="geometry" />
        </mxCell>
        <mxCell id="O9ZK9i_gv414k6VcTLi9-26" value="SUB CLASS" style="text;html=1;strokeColor=none;fillColor=none;align=center;verticalAlign=middle;whiteSpace=wrap;rounded=0;fontSize=22;" vertex="1" parent="1">
          <mxGeometry x="870" y="1040" width="230" height="80" as="geometry" />
        </mxCell>
        <mxCell id="O9ZK9i_gv414k6VcTLi9-27" value="SUB CLASS" style="text;html=1;strokeColor=none;fillColor=none;align=center;verticalAlign=middle;whiteSpace=wrap;rounded=0;fontSize=22;" vertex="1" parent="1">
          <mxGeometry x="890" y="1210" width="230" height="80" as="geometry" />
        </mxCell>
        <mxCell id="O9ZK9i_gv414k6VcTLi9-28" value="SUB CLASS" style="text;html=1;strokeColor=none;fillColor=none;align=center;verticalAlign=middle;whiteSpace=wrap;rounded=0;fontSize=22;" vertex="1" parent="1">
          <mxGeometry x="890" y="1360" width="230" height="80" as="geometry" />
        </mxCell>
        <mxCell id="O9ZK9i_gv414k6VcTLi9-31" style="edgeStyle=orthogonalEdgeStyle;rounded=0;orthogonalLoop=1;jettySize=auto;html=1;entryX=0;entryY=0.5;entryDx=0;entryDy=0;" edge="1" parent="1" source="O9ZK9i_gv414k6VcTLi9-29" target="O9ZK9i_gv414k6VcTLi9-30">
          <mxGeometry relative="1" as="geometry" />
        </mxCell>
        <mxCell id="O9ZK9i_gv414k6VcTLi9-29" value="DATA" style="shape=cylinder3;whiteSpace=wrap;html=1;boundedLbl=1;backgroundOutline=1;size=15;fontSize=25;" vertex="1" parent="1">
          <mxGeometry x="140" y="1710" width="140" height="170" as="geometry" />
        </mxCell>
        <mxCell id="O9ZK9i_gv414k6VcTLi9-33" style="edgeStyle=orthogonalEdgeStyle;rounded=0;orthogonalLoop=1;jettySize=auto;html=1;entryX=0.5;entryY=0;entryDx=0;entryDy=0;" edge="1" parent="1" source="O9ZK9i_gv414k6VcTLi9-30" target="O9ZK9i_gv414k6VcTLi9-32">
          <mxGeometry relative="1" as="geometry" />
        </mxCell>
        <mxCell id="O9ZK9i_gv414k6VcTLi9-30" value="algoritma" style="rhombus;whiteSpace=wrap;html=1;fontSize=25;" vertex="1" parent="1">
          <mxGeometry x="360" y="1690" width="220" height="210" as="geometry" />
        </mxCell>
        <mxCell id="O9ZK9i_gv414k6VcTLi9-35" style="edgeStyle=orthogonalEdgeStyle;rounded=0;orthogonalLoop=1;jettySize=auto;html=1;" edge="1" parent="1" source="O9ZK9i_gv414k6VcTLi9-32" target="O9ZK9i_gv414k6VcTLi9-34">
          <mxGeometry relative="1" as="geometry" />
        </mxCell>
        <mxCell id="O9ZK9i_gv414k6VcTLi9-32" value="model" style="shape=parallelogram;perimeter=parallelogramPerimeter;whiteSpace=wrap;html=1;fixedSize=1;fontSize=25;" vertex="1" parent="1">
          <mxGeometry x="360" y="1980" width="220" height="110" as="geometry" />
        </mxCell>
        <mxCell id="O9ZK9i_gv414k6VcTLi9-34" value="save to a file&lt;br&gt;pickle" style="rounded=0;whiteSpace=wrap;html=1;fontSize=25;" vertex="1" parent="1">
          <mxGeometry x="770" y="1970" width="230" height="130" as="geometry" />
        </mxCell>
        <mxCell id="O9ZK9i_gv414k6VcTLi9-36" value="GAME - TOMB RAIDER" style="shape=umlActor;verticalLabelPosition=bottom;verticalAlign=top;html=1;outlineConnect=0;fontSize=22;" vertex="1" parent="1">
          <mxGeometry x="780" y="1680" width="30" height="60" as="geometry" />
        </mxCell>
      </root>
    </mxGraphModel>
  </diagram>
</mxfile>
